<svg xmlns="http://www.w3.org/2000/svg" viewBox="0 0 960 540" role="img" aria-labelledby="t d"><title id="t">Sécurité des flottes</title><desc id="d">Gestionnaire africain suit une flotte de véhicules et la sécurité de ses conducteurs.</desc><defs><linearGradient id="bg" x1="0" y1="0" x2="1" y2="1"><stop stop-color="#075985"/><stop offset="1" stop-color="#0f172a"/></linearGradient></defs><rect width="960" height="540" fill="url(#bg)"/><g fill="#dbeafe" opacity=".95"><rect x="80" y="90" width="800" height="360" rx="28"/></g><g fill="#0f172a"><rect x="120" y="130" width="330" height="120" rx="18"/><rect x="120" y="275" width="330" height="120" rx="18"/></g><g fill="#38bdf8"><circle cx="165" cy="180" r="30"/><circle cx="165" cy="325" r="30"/></g><g fill="#f59e0b"><rect x="215" y="155" width="180" height="18" rx="9"/><rect x="215" y="300" width="145" height="18" rx="9"/></g><g transform="translate(510 150)" fill="none" stroke="#2563eb" stroke-width="12"><rect x="0" y="0" width="290" height="220" rx="20"/><path d="M35 165l60-65 55 45 65-85 45 45"/><circle cx="95" cy="100" r="7" fill="#2563eb"/><circle cx="150" cy="145" r="7" fill="#2563eb"/><circle cx="215" cy="60" r="7" fill="#2563eb"/></g><g transform="translate(620 405)" fill="none" stroke="#f97316" stroke-width="10"><circle cx="25" cy="35" r="22"/><circle cx="95" cy="35" r="22"/><path d="M25 35l28-40h32l10 40"/></g><text x="120" y="475" font-family="sans-serif" font-size="24" font-weight="800" fill="#0f172a">FORMER • PRÉVENIR • MESURER</text></svg>